# xmcd CD database file
#
# Track frame offsets:
#	150
#	23951
#	55530
#	87168
#	120938
#	147912
#	178001
#	206630
#	233359
#	263957
#
# Disc length: 3994 seconds
#
# Revision: 0
# Processed by: cddbd v1.5.2PL0 Copyright (c) Steve Scherf et al.
# Submitted via: CDex 1.51
#
DISCID=7b0f980a
DTITLE=Louie Romero - Timbalero
DYEAR=2006
DGENRE=Salsa
TTITLE0=Timbalero
TTITLE1=So Tu  No, La Otra
TTITLE2=Lou's Afro Cuban Blues
TTITLE3=Radio Tinguaro
TTITLE4=One for Louie
TTITLE5=Yembere
TTITLE6=Sky Blue
TTITLE7=Como se llama
TTITLE8=Pintura Y Capota
TTITLE9=Mazacote Jam
EXTD=YEAR: 2006
EXTT0=
EXTT1=
EXTT2=
EXTT3=
EXTT4=
EXTT5=
EXTT6=
EXTT7=
EXTT8=
EXTT9=
PLAYORDER=
